<svg xmlns="http://www.w3.org/2000/svg" viewBox="0 0 1000 1000" width="1000" height="1000">
<g transform="translate(120.00,120.00) scale(0.844444)">
<svg width="900.0" height="900.0" viewBox="0 0 900.0 900.0">
<g transform="translate(0.000000,900.000000) scale(0.100000,-0.100000)"
fill="#1F3A5F" stroke="none">
<path d="M0 4500 l0 -4500 4500 0 4500 0 0 4500 0 4500 -4500 0 -4500 0 0
-4500z m1780 3070 c138 -6 202 -14 250 -29 88 -27 141 -38 265 -56 64 -9 135
-27 182 -45 41 -17 116 -39 165 -50 51 -11 112 -33 143 -50 29 -17 78 -35 109
-42 32 -6 82 -26 113 -45 31 -18 85 -41 120 -50 37 -9 79 -28 101 -45 20 -17
55 -38 78 -48 23 -10 56 -31 75 -48 19 -16 54 -39 79 -52 25 -12 55 -32 68
-43 13 -12 47 -35 76 -52 76 -43 131 -83 189 -137 28 -27 55 -48 60 -48 13 0
292 -278 357 -355 30 -36 76 -90 103 -120 26 -31 47 -60 47 -65 0 -6 15 -27
34 -47 18 -21 43 -57 55 -80 12 -23 35 -58 51 -77 17 -19 38 -56 47 -83 8 -26
27 -63 40 -81 26 -35 103 -224 103 -254 0 -22 -75 -166 -101 -194 -11 -12 -29
-45 -40 -75 -11 -30 -32 -69 -46 -87 -14 -18 -36 -60 -48 -93 -13 -33 -35 -73
-48 -89 -14 -16 -37 -60 -52 -99 -14 -38 -33 -75 -41 -82 -21 -18 -39 -56 -53
-114 -7 -27 -27 -75 -46 -106 -19 -31 -40 -80 -46 -108 -6 -28 -27 -91 -46
-139 -68 -169 -112 -174 -148 -17 -9 39 -28 88 -43 110 -37 56 -37 138 2 193
14 21 31 54 37 73 11 38 1 286 -12 294 -12 8 -48 -45 -60 -89 -6 -22 -9 -69
-6 -102 11 -111 -22 -166 -78 -130 -13 8 -29 32 -35 53 -7 21 -22 54 -35 73
-12 20 -34 58 -48 85 -14 28 -37 61 -52 75 -15 14 -35 41 -45 61 -22 43 -277
301 -378 383 -40 33 -80 72 -90 88 -9 16 -31 37 -49 48 -18 10 -41 36 -52 58
-11 21 -32 47 -46 56 -15 10 -33 34 -42 54 -8 20 -30 53 -48 72 -19 19 -41 55
-50 80 -9 25 -31 61 -49 80 -18 19 -40 56 -50 82 -9 25 -28 53 -41 62 -13 9
-30 37 -41 68 -9 29 -28 66 -41 82 -21 25 -24 37 -19 70 20 142 21 139 -14
173 -52 50 -96 67 -140 54 -54 -16 -82 -51 -87 -108 -5 -65 9 -88 99 -155 69
-52 78 -62 92 -111 9 -31 27 -64 46 -82 17 -16 35 -47 41 -68 6 -21 27 -58 48
-80 21 -23 48 -60 59 -83 12 -23 33 -49 47 -58 15 -10 36 -39 47 -66 11 -27
30 -53 45 -61 14 -7 35 -34 48 -60 13 -25 35 -53 48 -62 15 -10 32 -37 42 -66
9 -27 33 -73 54 -103 21 -29 44 -71 51 -93 7 -22 26 -57 42 -79 17 -21 40 -61
50 -89 11 -29 37 -71 59 -94 44 -48 49 -78 18 -117 -19 -24 -26 -26 -99 -26
-89 0 -114 -14 -79 -46 16 -15 42 -19 138 -24 128 -5 141 -11 162 -63 7 -18
27 -57 45 -87 18 -30 35 -75 39 -100 4 -25 24 -83 45 -130 22 -48 44 -116 50
-155 6 -38 27 -119 46 -179 26 -79 39 -146 50 -250 8 -77 27 -213 41 -301 32
-190 36 -278 12 -283 -9 -2 -57 37 -115 93 -54 53 -117 108 -139 122 -22 14
-53 38 -70 53 -16 15 -51 39 -77 54 -27 15 -48 31 -48 36 0 5 -30 23 -67 40
-38 18 -79 42 -93 55 -14 13 -50 34 -80 48 -30 13 -63 34 -74 45 -10 12 -44
31 -74 42 -31 12 -70 34 -88 49 -18 16 -59 39 -91 51 -32 12 -73 33 -91 47
-18 14 -66 35 -107 48 -41 12 -88 34 -104 48 -17 14 -54 33 -83 42 -29 9 -76
32 -104 51 -28 19 -75 41 -105 50 -85 25 -145 83 -191 182 -21 47 -46 120 -54
165 -9 44 -29 117 -45 161 -16 45 -38 131 -49 193 -10 62 -32 154 -49 205 -16
51 -39 159 -50 240 -12 80 -27 164 -35 185 -25 70 -45 185 -61 338 -8 83 -26
206 -39 275 -40 203 -47 319 -53 831 l-6 487 26 26 c14 14 34 26 44 26 10 -1
101 -5 203 -10z m5269 -561 c21 -8 38 -24 52 -51 11 -21 35 -56 53 -76 18 -20
42 -55 54 -77 11 -22 30 -49 42 -60 12 -11 31 -37 41 -58 11 -21 35 -55 54
-76 19 -21 42 -58 50 -82 9 -23 27 -58 41 -76 14 -19 36 -61 49 -93 13 -32 36
-76 53 -97 16 -21 37 -61 46 -89 9 -28 30 -68 45 -90 16 -22 37 -68 46 -104 9
-36 32 -92 50 -125 19 -33 41 -88 49 -122 9 -34 30 -84 46 -110 21 -35 33 -73
44 -139 7 -50 27 -122 44 -160 34 -79 48 -139 57 -239 4 -38 22 -147 40 -240
33 -166 34 -178 36 -440 2 -290 -12 -458 -50 -605 -11 -41 -25 -115 -31 -165
-12 -100 -33 -181 -60 -235 -10 -20 -26 -72 -34 -115 -9 -44 -30 -105 -46
-137 -16 -31 -36 -83 -45 -115 -9 -32 -32 -81 -51 -109 -19 -28 -41 -74 -49
-102 -9 -29 -29 -67 -45 -85 -15 -18 -39 -57 -53 -87 -13 -30 -32 -61 -41 -69
-10 -8 -28 -36 -42 -63 -13 -26 -38 -63 -55 -83 -32 -36 -48 -56 -129 -161
-48 -63 -143 -153 -254 -244 -37 -30 -90 -74 -117 -97 -27 -24 -54 -43 -60
-43 -5 0 -28 -17 -52 -39 -23 -21 -59 -46 -81 -55 -21 -9 -53 -29 -71 -45 -18
-16 -57 -37 -87 -46 -29 -10 -70 -31 -90 -47 -27 -21 -59 -33 -115 -44 -43 -8
-96 -20 -118 -26 -132 -36 -223 -49 -407 -58 -280 -12 -337 -18 -479 -51 -70
-16 -142 -29 -160 -29 -19 0 -56 -7 -83 -15 -65 -20 -135 -20 -142 0 -12 29 6
62 48 90 48 32 211 195 267 267 20 25 63 79 96 118 126 151 146 176 174 220
16 25 40 59 54 75 13 17 34 49 46 73 12 24 37 60 55 80 19 20 41 54 50 76 9
21 29 53 45 71 16 18 35 51 41 72 18 54 108 172 137 179 14 4 45 4 70 0 57 -8
175 18 198 44 23 25 17 27 -104 34 -99 5 -131 20 -131 59 0 29 47 155 71 188
11 16 30 70 43 121 13 51 36 118 51 148 16 31 38 102 51 165 27 136 76 250
115 271 15 8 53 14 84 14 60 0 100 25 93 58 -3 15 -15 17 -80 14 -72 -4 -79
-2 -104 23 -25 25 -26 31 -20 88 23 223 19 347 -10 347 -25 0 -62 -45 -74 -91
-34 -129 -116 -331 -153 -382 -14 -18 -34 -60 -45 -95 -12 -35 -32 -76 -46
-92 -13 -17 -32 -54 -40 -85 -24 -82 -72 -98 -110 -35 -9 17 -28 37 -41 46
-13 8 -31 34 -40 57 -19 49 -42 76 -71 87 -17 7 -23 20 -28 72 -8 72 -24 101
-65 122 -28 15 -28 16 -33 128 -4 84 -10 125 -26 159 -43 97 -62 74 -62 -74 0
-123 12 -162 60 -189 28 -16 30 -21 30 -73 0 -69 19 -116 53 -134 22 -12 28
-24 33 -65 6 -43 14 -58 53 -96 25 -25 54 -59 63 -75 10 -17 27 -42 39 -57 32
-39 31 -100 -3 -135 -15 -15 -36 -49 -48 -75 -11 -26 -32 -60 -45 -77 -14 -16
-35 -50 -46 -76 -11 -25 -33 -60 -48 -78 -16 -18 -38 -50 -49 -73 -11 -22 -37
-60 -56 -83 -20 -24 -36 -47 -36 -52 0 -5 -18 -29 -40 -53 -22 -24 -49 -64
-60 -89 -28 -62 -47 -72 -102 -51 -58 23 -73 37 -87 84 -8 29 -23 48 -50 66
-36 23 -39 29 -46 87 -6 56 -10 65 -50 102 l-43 40 -4 90 c-4 92 -19 140 -51
159 -28 17 -37 -9 -37 -109 0 -97 18 -147 58 -159 22 -7 32 -33 32 -83 0 -46
17 -85 48 -110 16 -14 33 -43 42 -75 13 -41 24 -58 54 -79 71 -48 92 -118 57
-194 -28 -61 -486 -515 -556 -551 -16 -8 -46 -31 -65 -49 -48 -47 -93 -62
-123 -42 -38 25 -105 244 -122 402 -17 159 -32 261 -45 318 -16 71 -33 389
-33 617 0 191 3 240 32 435 18 121 39 266 46 322 17 119 19 132 51 238 13 44
33 122 44 174 11 52 31 114 46 138 14 24 36 86 49 138 13 52 33 108 45 126 13
17 35 64 50 105 15 40 39 87 53 104 14 16 33 54 41 84 9 30 27 67 40 83 13 16
38 57 54 91 17 34 42 76 56 93 14 16 35 51 46 76 11 25 36 63 55 84 19 22 35
45 35 52 0 7 19 36 43 64 23 28 65 79 92 114 118 146 387 427 527 551 136 121
169 148 177 148 6 0 31 18 56 40 26 22 63 49 83 59 21 10 46 29 57 41 11 12
41 33 67 46 26 13 63 37 81 54 19 17 51 37 71 45 20 9 51 30 69 47 18 17 52
39 77 50 25 11 56 30 71 44 14 13 53 35 87 48 35 14 76 36 93 50 16 14 53 32
82 41 29 8 75 31 102 50 33 22 70 38 105 44 30 5 55 9 56 10 1 0 15 -4 33 -10z
m-5128 -3154 c92 -7 205 -23 251 -34 47 -12 133 -27 192 -35 88 -11 116 -19
157 -45 28 -17 80 -38 117 -46 36 -9 87 -29 112 -45 25 -16 70 -38 100 -50 30
-12 66 -32 80 -45 14 -12 41 -31 60 -40 88 -45 449 -405 509 -508 14 -23 39
-60 57 -82 18 -23 39 -58 47 -78 9 -20 29 -54 46 -74 17 -21 37 -56 46 -77 9
-22 32 -59 50 -83 19 -25 42 -68 51 -96 9 -29 30 -74 45 -102 15 -28 33 -81
40 -120 6 -38 27 -109 45 -157 19 -48 40 -128 49 -179 8 -51 22 -114 30 -140
21 -61 17 -123 -7 -127 -42 -8 -126 20 -167 54 -26 23 -63 42 -99 51 -31 8
-77 30 -102 48 -25 19 -59 37 -75 41 -40 9 -83 31 -125 64 -19 16 -52 33 -72
39 -20 7 -57 27 -81 46 -25 19 -70 44 -101 55 -39 15 -68 35 -101 72 -50 56
-66 98 -53 143 4 16 8 95 8 175 0 156 -7 184 -54 221 -18 14 -26 33 -31 71 -9
66 -18 84 -66 129 l-39 35 3 95 c3 141 -28 189 -122 189 -20 0 -45 -6 -54 -12
-29 -22 -87 -112 -87 -135 0 -40 68 -102 156 -144 88 -42 83 -35 113 -146 10
-38 43 -75 74 -86 7 -2 13 -47 17 -128 5 -87 11 -134 23 -156 21 -40 22 -106
2 -123 -8 -7 -35 -15 -58 -17 -41 -5 -48 -2 -95 40 -28 25 -64 48 -80 52 -16
3 -53 26 -82 51 -28 24 -55 44 -60 44 -7 0 -66 48 -180 148 -25 22 -64 49 -86
60 -23 12 -44 28 -47 36 -3 8 -24 24 -46 36 -22 11 -47 33 -55 48 -8 16 -33
41 -55 55 -23 15 -41 32 -41 37 0 9 -48 62 -113 127 -11 10 -40 39 -65 64 -52
51 -107 72 -118 45 -12 -31 6 -65 44 -86 22 -12 47 -35 56 -51 10 -16 29 -37
44 -46 24 -15 54 -42 129 -116 20 -20 85 -91 153 -168 57 -64 120 -131 238
-251 91 -94 92 -95 92 -144 0 -55 -5 -66 -37 -83 -48 -25 -26 -34 71 -28 125
7 114 14 352 -208 24 -22 68 -62 99 -90 31 -27 76 -68 99 -90 41 -39 111 -96
206 -169 44 -34 186 -131 252 -171 38 -23 44 -42 24 -70 -18 -24 -74 -26 -284
-7 -154 13 -212 23 -309 52 -34 11 -102 24 -150 31 -53 6 -122 24 -173 44 -47
19 -122 43 -168 53 -45 11 -99 31 -120 44 -21 14 -63 33 -95 42 -31 9 -72 30
-90 45 -18 16 -60 41 -92 56 -33 14 -71 37 -85 49 -14 13 -43 33 -65 44 -22
11 -51 32 -65 47 -14 15 -38 34 -55 42 -16 9 -52 35 -80 59 -187 163 -238 212
-266 255 -17 27 -35 49 -40 49 -5 0 -24 24 -43 53 -18 28 -43 61 -55 71 -12
11 -31 36 -43 55 -12 20 -34 51 -50 69 -15 18 -39 54 -52 80 -14 27 -32 55
-42 63 -9 8 -30 42 -45 77 -16 34 -39 77 -52 95 -14 18 -32 57 -42 87 -10 30
-32 82 -50 115 -18 33 -41 94 -50 135 -9 41 -29 97 -44 125 -32 56 -36 72 -51
176 -5 41 -22 113 -36 161 -47 153 -36 162 229 194 106 13 248 32 317 43 153
23 336 26 561 6z"/>
<path d="M3828 6148 c-18 -6 -39 -30 -63 -74 -34 -61 -36 -68 -24 -97 16 -38
67 -97 84 -97 21 0 65 -41 79 -74 16 -38 42 -66 63 -66 12 0 14 15 13 88 -2
48 1 115 5 149 7 56 5 66 -19 107 -36 62 -83 84 -138 64z"/>
<path d="M3995 5643 c-4 -10 -9 -92 -11 -183 -5 -267 16 -357 52 -233 13 43
18 95 18 198 0 122 -3 146 -22 188 -23 52 -27 55 -37 30z"/>
<path d="M2175 5576 c-53 -23 -85 -70 -85 -127 0 -42 5 -54 36 -89 19 -21 43
-41 52 -44 9 -2 38 -9 63 -16 26 -7 63 -27 85 -47 21 -19 50 -41 64 -48 14 -7
35 -27 48 -44 12 -17 37 -38 55 -47 17 -9 48 -34 68 -55 26 -29 46 -40 79 -45
29 -5 56 -19 83 -43 38 -35 43 -36 126 -39 90 -4 128 9 116 38 -9 25 -41 40
-121 55 -59 11 -83 21 -116 49 -28 24 -55 37 -86 42 -36 5 -54 16 -88 50 -23
24 -50 44 -59 44 -9 0 -45 28 -81 63 l-66 62 6 65 c6 61 5 68 -24 113 -19 31
-43 53 -65 63 -42 17 -51 17 -90 0z"/>
<path d="M6276 5859 c-33 -26 -56 -69 -56 -105 0 -39 75 -161 113 -184 39 -24
45 -19 97 77 52 97 51 153 -2 211 -29 30 -113 31 -152 1z"/>
<path d="M6365 5440 c-10 -16 -20 -930 -11 -1003 9 -66 26 -74 53 -24 16 29
18 64 17 377 -1 265 -5 380 -19 495 -17 147 -25 179 -40 155z"/>
<path d="M7235 4731 c-27 -11 -48 -37 -75 -88 l-22 -43 20 -39 c30 -57 38
-124 17 -144 -9 -10 -21 -17 -26 -17 -6 0 -21 -25 -34 -55 -19 -42 -33 -59
-63 -74 -21 -10 -43 -30 -50 -43 -8 -13 -31 -35 -52 -48 -22 -14 -49 -37 -60
-52 -11 -15 -42 -39 -68 -52 -26 -13 -57 -38 -69 -54 -17 -23 -35 -33 -75 -41
-60 -13 -88 -34 -88 -67 0 -50 106 -42 157 13 20 21 51 40 82 49 34 10 57 24
71 44 12 17 39 39 60 50 21 11 46 32 55 48 10 16 30 37 46 48 16 10 35 35 43
54 8 19 30 49 50 67 22 19 36 40 36 55 0 53 12 69 69 94 66 30 96 56 122 106
24 46 24 72 0 125 -28 61 -89 87 -146 64z"/>
<path d="M5386 4690 c-75 -70 -80 -110 -19 -181 16 -19 41 -51 56 -71 16 -21
34 -38 42 -38 19 0 83 67 106 112 23 45 25 118 4 158 -21 41 -53 60 -102 60
-37 0 -50 -6 -87 -40z"/>
<path d="M4815 3777 c-47 -26 -78 -79 -70 -120 2 -16 20 -47 40 -69 19 -23 44
-70 56 -107 26 -78 46 -121 58 -121 5 0 11 22 15 50 9 71 32 127 65 165 68 78
48 180 -42 214 -43 16 -78 13 -122 -12z"/>
<path d="M7125 3462 c-17 -10 -45 -35 -63 -56 -28 -32 -32 -44 -32 -92 0 -67
-10 -87 -49 -104 -17 -7 -42 -27 -56 -46 -17 -22 -37 -35 -60 -40 -24 -4 -45
-18 -65 -44 -27 -34 -37 -39 -88 -46 -50 -6 -62 -12 -97 -49 -38 -40 -44 -43
-110 -49 -75 -6 -120 -29 -120 -62 0 -15 11 -21 46 -28 71 -14 116 -1 157 45
27 29 43 39 66 39 58 0 105 20 131 54 18 24 39 37 70 45 34 9 51 20 68 46 12
19 30 38 40 41 11 3 36 23 57 45 33 35 45 40 109 49 123 17 161 49 161 136 0
57 -22 94 -70 119 -38 20 -59 19 -95 -3z"/>
<path d="M1297 3510 c-54 -10 -79 -39 -84 -97 -4 -39 0 -55 19 -83 33 -48 65
-58 130 -38 29 9 70 19 91 23 31 5 37 10 37 31 0 38 -24 85 -67 132 -42 44
-52 47 -126 32z"/>
<path d="M1510 3292 c0 -34 29 -62 66 -62 29 0 34 3 34 24 0 30 -34 56 -72 56
-20 0 -28 -5 -28 -18z"/>
<path d="M1670 3175 c0 -15 46 -32 57 -22 3 4 3 13 0 22 -8 20 -57 20 -57 0z"/>
<path d="M1670 2618 c-63 -44 -86 -121 -55 -193 19 -48 51 -58 172 -56 l101 2
12 -35 c15 -45 27 -54 91 -66 40 -7 60 -17 79 -39 34 -40 68 -51 150 -51 80 0
122 13 114 34 -11 30 -56 47 -147 57 -86 9 -94 12 -122 43 -38 42 -58 52 -118
61 -39 6 -48 11 -52 31 -3 13 -8 36 -11 52 -8 41 -85 152 -116 168 -38 19 -60
18 -98 -8z"/>
</g>
</svg>
</g>
</svg>
